<svg xmlns="http://www.w3.org/2000/svg" width="47.614" height="50.621" viewBox="0 0 47.614 50.621">
  <g id="Group_141698" data-name="Group 141698" transform="translate(5679 -2058)">
    <path id="path30712" d="M3451.306,790.244a21.637,21.637,0,1,1-21.637-21.637A21.637,21.637,0,0,1,3451.306,790.244Z" transform="translate(-9087.033 1289.393)" fill="#ffcc71"/>
    <g id="infrastructure_1_" data-name="infrastructure (1)" transform="translate(-5678 2062)">
      <path id="Path_276047" data-name="Path 276047" d="M6.048,41.631l-1.729.559-1.471-4.5-1.4.456,1.471,4.5a1.466,1.466,0,0,0,1.854.949L6.5,43.029a19.944,19.944,0,0,0,2.972,4.1L8.41,48.6a1.449,1.449,0,0,0-.272,1.089,1.488,1.488,0,0,0,.589.971l3.568,2.59a1.472,1.472,0,0,0,2.06-.324l1.074-1.464a19.189,19.189,0,0,0,4.811,1.567v1.817a1.476,1.476,0,0,0,1.471,1.471h4.414A1.476,1.476,0,0,0,27.6,54.844V53.027a19.358,19.358,0,0,0,4.819-1.574l1.059,1.464a1.449,1.449,0,0,0,.956.6,1.434,1.434,0,0,0,1.1-.265l3.568-2.59a1.477,1.477,0,0,0,.324-2.06l-1.059-1.479a19.148,19.148,0,0,0,2.965-4.1l1.729.566a1.5,1.5,0,0,0,1.126-.088,1.454,1.454,0,0,0,.728-.861l1.471-4.5-1.4-.456-1.471,4.51-1.729-.566a1.488,1.488,0,0,0-1.751.7A18.181,18.181,0,0,1,37.293,46.1a1.462,1.462,0,0,0-.125,1.876l1.067,1.471-3.568,2.59-1.074-1.479a1.48,1.48,0,0,0-1.825-.456,18.107,18.107,0,0,1-4.436,1.449A1.479,1.479,0,0,0,26.118,53v1.817H21.7V53a1.466,1.466,0,0,0-1.214-1.442A17.925,17.925,0,0,1,16.039,50.1a1.474,1.474,0,0,0-1.817.463l-1.067,1.471-3.568-2.59,1.059-1.464a1.454,1.454,0,0,0-.125-1.883A18.187,18.187,0,0,1,7.77,42.3a1.485,1.485,0,0,0-1.744-.684Z" transform="translate(-0.119 -9.695)" fill="#3a3640"/>
      <path id="Path_276048" data-name="Path 276048" d="M26.7,48.956A15.369,15.369,0,0,0,41.437,38.141L40.032,37.7a13.983,13.983,0,0,1-26.676,0l-1.405.441A15.369,15.369,0,0,0,26.686,48.956Z" transform="translate(-2.894 -9.7)" fill="#3a3640"/>
      <path id="Path_276049" data-name="Path 276049" d="M1,34H46.613v1.471H1Z" transform="translate(0 -8.722)" fill="#3a3640"/>
      <path id="Path_276050" data-name="Path 276050" d="M44.728,23.807v-10.3a.738.738,0,0,0-.736-.736H38.106V1.736A.738.738,0,0,0,37.371,1H28.542a.738.738,0,0,0-.736.736V9.093H21.921V6.15a.73.73,0,0,0-.265-.566L17.242,1.9a.734.734,0,0,0-.942,0L11.886,5.583a.73.73,0,0,0-.265.566v5.886H5.736A.738.738,0,0,0,5,12.771V23.807H6.471v-10.3h5.15v10.3h1.471V6.5l3.678-3.068L20.45,6.5V23.807h1.471V10.564h5.886V23.807h1.471V2.471h7.357V23.807h1.471V14.243h5.15v9.564Z" transform="translate(-1.057 0)" fill="#3a3640"/>
      <path id="Path_276051" data-name="Path 276051" d="M40,6h1.471V7.471H40Z" transform="translate(-10.308 -1.322)" fill="#3a3640"/>
      <path id="Path_276052" data-name="Path 276052" d="M44,6h1.471V7.471H44Z" transform="translate(-11.365 -1.322)" fill="#3a3640"/>
      <path id="Path_276053" data-name="Path 276053" d="M40,11h1.471v1.471H40Z" transform="translate(-10.308 -2.643)" fill="#3a3640"/>
      <path id="Path_276054" data-name="Path 276054" d="M44,11h1.471v1.471H44Z" transform="translate(-11.365 -2.643)" fill="#3a3640"/>
      <path id="Path_276055" data-name="Path 276055" d="M40,16h1.471v1.471H40Z" transform="translate(-10.308 -3.965)" fill="#3a3640"/>
      <path id="Path_276056" data-name="Path 276056" d="M44,16h1.471v1.471H44Z" transform="translate(-11.365 -3.965)" fill="#3a3640"/>
      <path id="Path_276057" data-name="Path 276057" d="M18,10h4.414v1.471H18Z" transform="translate(-4.493 -2.379)" fill="#3a3640"/>
      <path id="Path_276058" data-name="Path 276058" d="M18,15h4.414v1.471H18Z" transform="translate(-4.493 -3.7)" fill="#3a3640"/>
    </g>
  </g>
</svg>
