<svg xmlns="http://www.w3.org/2000/svg" width="46.599" height="50.621" viewBox="0 0 46.599 50.621">
  <g id="Group_141699" data-name="Group 141699" transform="translate(5799 -2058)">
    <path id="path30712" d="M3451.306,790.244a21.637,21.637,0,1,1-21.637-21.637A21.637,21.637,0,0,1,3451.306,790.244Z" transform="translate(-9207.033 1289.393)" fill="#ffcc71"/>
    <g id="curve_2_" data-name="curve (2)" transform="translate(-5798.97 2062.057)">
      <path id="Path_276059" data-name="Path 276059" d="M73.438,61.153l-4.775-2.387-3.039-7.9a.728.728,0,0,0-.408-.415L46.363,42.91a.728.728,0,0,0-.782.16l-2.515,2.515a.728.728,0,0,0-.156.779l7.537,18.854a.728.728,0,0,0,.415.408l7.9,3.039,2.387,4.774a.728.728,0,0,0,.535.4.63.63,0,0,0,.116,0,.728.728,0,0,0,.513-.215l11.31-11.31a.712.712,0,0,0-.189-1.165Zm-29-14.884.4-.4,9.385,9.385a4.283,4.283,0,1,0,1.03-1.03l-9.385-9.385.4-.4L64.38,51.68l2.857,7.431-8.126,8.126L51.68,64.38Zm13.286,8.625a2.828,2.828,0,1,1-2,.826,2.828,2.828,0,0,1,2-.826ZM62,71.884l-1.82-3.639,8.053-8.053,3.639,1.82Z" transform="translate(-27.28 -27.281)" fill="#3a3640"/>
      <path id="Path_276060" data-name="Path 276060" d="M13.9,38.919a.75.75,0,0,0-1.03,0l-.924.924a19.982,19.982,0,0,1-.364-23.2,3.734,3.734,0,0,0,5.08-5.055,19.982,19.982,0,0,1,23.2.364l-.939.913a.734.734,0,0,0,0,1.03l3.21,3.184a.728.728,0,0,0,1.026,0l3.191-3.191a.728.728,0,0,0,0-1.03L43.155,9.671a.728.728,0,0,0-1.026,0L40.9,10.9A21.438,21.438,0,0,0,19.388,8.4l4.2-4.185a2.231,2.231,0,1,0-1.041-1.03l-7.082,7.093a3.737,3.737,0,0,0-5.186,5.186L3.184,22.543a2.234,2.234,0,1,0,1.03,1.03l4.2-4.185A21.438,21.438,0,0,0,10.9,40.895l-1.23,1.234a.728.728,0,0,0,0,1.026l3.191,3.191a.725.725,0,0,0,1.03,0l3.2-3.191a.728.728,0,0,0,0-1.026ZM42.65,11.207l2.162,2.162L42.65,15.53l-2.162-2.162ZM24,1.665a.771.771,0,1,1-.226.546A.775.775,0,0,1,24,1.665ZM11.772,11.771a2.282,2.282,0,1,1,0,3.228A2.274,2.274,0,0,1,11.772,11.771ZM2.761,25.09A.775.775,0,0,1,1.67,24,.772.772,0,1,1,2.761,25.09Zm10.623,19.7-2.162-2.162,2.162-2.162,2.162,2.162Z" transform="translate(0)" fill="#3a3640"/>
    </g>
  </g>
</svg>
