<svg xmlns="http://www.w3.org/2000/svg" width="49.791" height="49.686" viewBox="0 0 49.791 49.686">
  <g id="Group_141701" data-name="Group 141701" transform="translate(5562.518 -2057)">
    <path id="path30712" d="M3451.306,790.244a21.637,21.637,0,1,1-21.637-21.637A21.637,21.637,0,0,1,3451.306,790.244Z" transform="translate(-8964.033 1288.393)" fill="#ffcc71"/>
    <g id="rocket_1_" data-name="rocket (1)" transform="translate(-5564.479 2065.785)">
      <path id="Path_276068" data-name="Path 276068" d="M24.639,33.7a.56.56,0,0,1-.181-.03,14.646,14.646,0,0,1-9.514-9.514.556.556,0,0,1,.071-.5l8.263-11.79A26,26,0,0,1,46.061,2.044a.556.556,0,0,1,.512.511,26,26,0,0,1-9.8,22.768l-.02.015L24.957,33.6a.552.552,0,0,1-.318.1Zm-8.55-9.639a13.525,13.525,0,0,0,8.465,8.465L36.1,24.437A24.856,24.856,0,0,0,45.5,3.121a24.845,24.845,0,0,0-21.324,9.408Z" transform="translate(-5.755 0)"/>
      <path id="Path_276069" data-name="Path 276069" d="M60.611,14.929a.568.568,0,0,1-.105-.009,12.261,12.261,0,0,1-6.395-3.394,12.261,12.261,0,0,1-3.394-6.395.556.556,0,1,1,1.092-.208A11.154,11.154,0,0,0,54.9,10.74a11.154,11.154,0,0,0,5.817,3.088.556.556,0,0,1-.1,1.1Z" transform="translate(-21.659 -1.115)"/>
      <path id="Path_276070" data-name="Path 276070" d="M42.207,29.187a4.351,4.351,0,1,1,3.078-1.273A4.351,4.351,0,0,1,42.207,29.187Zm0-7.593a3.242,3.242,0,1,0,2.292.95A3.242,3.242,0,0,0,42.207,21.593Z" transform="translate(-15.949 -8.23)"/>
      <path id="Path_276071" data-name="Path 276071" d="M36.344,60.16h-.033a.556.556,0,0,1-.441-.265L31.5,52.74a.556.556,0,0,1,.949-.58L36.4,58.634,39.4,54.841a8.067,8.067,0,0,0,1.658-6l-.366-2.812a.556.556,0,1,1,1.1-.143l.366,2.812a9.182,9.182,0,0,1-1.889,6.835l-3.489,4.419a.556.556,0,0,1-.434.209Z" transform="translate(-13.087 -19.301)"/>
      <path id="Path_276072" data-name="Path 276072" d="M9.748,33.935a.556.556,0,0,1-.29-.081L2.3,29.481a.556.556,0,0,1-.056-.91l4.419-3.489A9.186,9.186,0,0,1,13.5,23.193l2.812.366a.556.556,0,1,1-.143,1.1L13.36,24.3a8.07,8.07,0,0,0-6,1.658l-3.794,3,6.473,3.956a.556.556,0,0,1-.29,1.03Z" transform="translate(-0.034 -9.401)"/>
      <path id="Path_276073" data-name="Path 276073" d="M14.78,67.181a.556.556,0,0,1-.393-.949L19.35,61.27a.556.556,0,1,1,.786.786l-4.963,4.963A.556.556,0,0,1,14.78,67.181Z" transform="translate(-5.448 -26.28)"/>
      <path id="Path_276074" data-name="Path 276074" d="M2.518,54.919a.556.556,0,0,1-.393-.949l4.963-4.963a.556.556,0,1,1,.786.786L2.911,54.756a.556.556,0,0,1-.393.163Z" transform="translate(0 -20.832)"/>
      <path id="Path_276075" data-name="Path 276075" d="M3.124,66.272a.556.556,0,0,1-.393-.949l5.341-5.341a.556.556,0,1,1,.786.786L3.517,66.11A.556.556,0,0,1,3.124,66.272Z" transform="translate(-0.269 -25.708)"/>
    </g>
  </g>
</svg>
