<svg xmlns="http://www.w3.org/2000/svg" width="49.29" height="48.62" viewBox="0 0 49.29 48.62">
  <g id="Group_141703" data-name="Group 141703" transform="translate(5466 -2160)">
    <g id="Group_141702" data-name="Group 141702" transform="translate(213 102)">
      <path id="path30712" d="M3451.306,790.244a21.637,21.637,0,1,1-21.637-21.637A21.637,21.637,0,0,1,3451.306,790.244Z" transform="translate(-9087.033 1289.393)" fill="#ffcc71"/>
    </g>
    <path id="deployment" d="M50.665,83.843A8.767,8.767,0,0,1,46.839,100.5H15.772a8.767,8.767,0,0,1-3.936-16.6q0-.046,0-.092A13.432,13.432,0,0,1,23.2,70.532v-.4a.986.986,0,0,1,.632-.92l2.048-.788a14.021,14.021,0,0,1,1.3-3.132l-.892-2.007a.986.986,0,0,1,.2-1.1l2.911-2.911a.986.986,0,0,1,1.1-.2l2.007.892a13.925,13.925,0,0,1,3.129-1.3l.792-2.052a.986.986,0,0,1,.92-.631h4.117a.986.986,0,0,1,.92.632l.788,2.051a13.921,13.921,0,0,1,3.128,1.3l2.007-.892a.986.986,0,0,1,1.1.2l2.911,2.911a.986.986,0,0,1,.2,1.1l-.889,2.008a13.906,13.906,0,0,1,1.3,3.133l2.047.788a.986.986,0,0,1,.632.92v4.118a.986.986,0,0,1-.632.92l-2.048.788a14.045,14.045,0,0,1-1.3,3.128l.89,2.009a.986.986,0,0,1-.2,1.1ZM23.2,72.531a11.46,11.46,0,0,0-9.4,11.273c0,.22,0,.441.018.659a.986.986,0,0,1-.61.969,6.8,6.8,0,0,0,2.556,13.1H46.839a6.8,6.8,0,0,0,2.242-13.213.986.986,0,0,1-.768-.013l-2.007-.889a13.894,13.894,0,0,1-3.13,1.3l-.788,2.047a.986.986,0,0,1-.92.632H37.351a.986.986,0,0,1-.92-.632l-.788-2.047a14.015,14.015,0,0,1-3.132-1.3L30.5,85.3a.986.986,0,0,1-1.1-.2l-2.911-2.911a.986.986,0,0,1-.2-1.1l.892-2.006a14.014,14.014,0,0,1-1.3-3.128l-2.049-.789a.986.986,0,0,1-.632-.92ZM41.518,59.846l-.727-1.893H38.027L37.3,59.847a.986.986,0,0,1-.692.6,11.962,11.962,0,0,0-3.513,1.456.986.986,0,0,1-.918.062l-1.852-.824L28.368,63.1l.824,1.852a.986.986,0,0,1-.062.918,12.065,12.065,0,0,0-1.461,3.519.986.986,0,0,1-.6.69l-1.889.727v2.764l1.889.727a.986.986,0,0,1,.6.689,12.038,12.038,0,0,0,1.46,3.515.986.986,0,0,1,.062.919l-.824,1.852,1.954,1.954,1.853-.821a.986.986,0,0,1,.914.061,12.051,12.051,0,0,0,3.519,1.457.986.986,0,0,1,.693.605l.727,1.889h2.763l.727-1.889a.986.986,0,0,1,.692-.605,11.916,11.916,0,0,0,3.512-1.455.986.986,0,0,1,.918-.063l1.853.821,1.955-1.954-.821-1.853a.986.986,0,0,1,.061-.914,12.076,12.076,0,0,0,1.457-3.515.986.986,0,0,1,.605-.692l1.889-.727V70.805l-1.889-.727a.986.986,0,0,1-.605-.693,11.945,11.945,0,0,0-1.456-3.517.986.986,0,0,1-.062-.917l.821-1.853-1.954-1.954-1.852.824a.986.986,0,0,1-.918-.062,11.961,11.961,0,0,0-3.513-1.456.986.986,0,0,1-.692-.606Zm-2.111,4.171a8.17,8.17,0,1,1-8.168,8.168,8.169,8.169,0,0,1,8.168-8.168Zm0,1.972a6.2,6.2,0,1,0,6.2,6.2A6.194,6.194,0,0,0,39.408,65.989Z" transform="translate(-5472.321 2108.12)" fill="#3a3640" fill-rule="evenodd"/>
  </g>
</svg>
