<svg xmlns="http://www.w3.org/2000/svg" width="48.674" height="50.621" viewBox="0 0 48.674 50.621">
  <g id="Group_141700" data-name="Group 141700" transform="translate(5626.387 -2058)">
    <path id="path30712" d="M3451.306,790.244a21.637,21.637,0,1,1-21.637-21.637A21.637,21.637,0,0,1,3451.306,790.244Z" transform="translate(-9029.02 1289.393)" fill="#ffcc71"/>
    <g id="test_3_" data-name="test (3)" transform="translate(-5632.637 2062.025)">
      <path id="Path_276061" data-name="Path 276061" d="M41.62,4H17.279a3.8,3.8,0,0,0-3.8,3.8V25.328a7.993,7.993,0,0,0,0,15.913v1.552a3.8,3.8,0,0,0,3.8,3.8H35.535a.763.763,0,0,0,.54-.221l9.1-8.344a.809.809,0,0,0,.243-.563V7.8A3.8,3.8,0,0,0,41.62,4ZM14.237,39.75A6.465,6.465,0,1,1,20.7,33.285,6.465,6.465,0,0,1,14.237,39.75ZM36.3,44.108V39.75a1.526,1.526,0,0,1,1.521-1.521h4.891Zm7.606-7.4H37.816a3.042,3.042,0,0,0-3.043,3.043v5.324H17.279A2.289,2.289,0,0,1,15,42.792V41.241a7.993,7.993,0,0,0,0-15.913V7.8a2.289,2.289,0,0,1,2.282-2.282H41.62A2.289,2.289,0,0,1,43.9,7.8Z" transform="translate(0 0)" fill="#3a3640"/>
      <path id="Path_276062" data-name="Path 276062" d="M42.766,27H24.511a.761.761,0,1,0,0,1.521H42.766a.761.761,0,0,0,0-1.521Z" transform="translate(-4.189 -5.505)" fill="#3a3640"/>
      <path id="Path_276063" data-name="Path 276063" d="M24.511,20.522H39.723a.761.761,0,0,0,0-1.521H24.511a.761.761,0,1,0,0,1.521Z" transform="translate(-4.189 -3.591)" fill="#3a3640"/>
      <path id="Path_276064" data-name="Path 276064" d="M42.766,11H24.511a.761.761,0,0,0,0,1.521H42.766a.761.761,0,0,0,0-1.521Z" transform="translate(-4.189 -1.675)" fill="#3a3640"/>
      <path id="Path_276065" data-name="Path 276065" d="M38.6,44.934H32.511a.761.761,0,1,0,0,1.521H38.6a.761.761,0,1,0,0-1.521Z" transform="translate(-6.104 -9.798)" fill="#3a3640"/>
      <path id="Path_276066" data-name="Path 276066" d="M44.681,36.934H32.511a.761.761,0,0,0,0,1.521h12.17a.761.761,0,0,0,0-1.521Z" transform="translate(-6.104 -7.883)" fill="#3a3640"/>
      <path id="Path_276067" data-name="Path 276067" d="M17.587,38.621l-2.772,4.23-2.066-1.526a.761.761,0,1,0-.9,1.224l2.714,2a.761.761,0,0,0,1.088-.195l3.213-4.9a.761.761,0,1,0-1.273-.834Z" transform="translate(-1.265 -8.205)" fill="#3a3640"/>
    </g>
  </g>
</svg>
